<svg xmlns="http://www.w3.org/2000/svg" width="960" height="600" viewBox="0 0 480 300" font-family="system-ui,-apple-system,Segoe UI,Roboto,sans-serif"><rect width="480" height="300" rx="18" fill="#F7F5F2"/><rect x="0" y="0" width="480" height="8" fill="#E8683F"/><text x="38" y="40" fill="#8A8378" font-size="12" letter-spacing="2">THE SHARED ROOT</text><text x="38" y="76" fill="#2A2722" font-size="22" font-weight="700"><tspan x="38" dy="0">00 serves every project</tspan></text><path d="M240 180 L92 132" stroke="#D9D3C9" stroke-width="2"/><path d="M240 180 L388 132" stroke="#D9D3C9" stroke-width="2"/><path d="M240 180 L92 232" stroke="#D9D3C9" stroke-width="2"/><path d="M240 180 L388 232" stroke="#D9D3C9" stroke-width="2"/><rect x="42" y="116" width="100" height="32" rx="8" fill="#FFFFFF" stroke="#D9D3C9"/><text x="92" y="136" fill="#5B554D" font-size="10" text-anchor="middle"><tspan x="92" dy="0">Office_git</tspan></text><rect x="338" y="116" width="100" height="32" rx="8" fill="#FFFFFF" stroke="#D9D3C9"/><text x="388" y="136" fill="#5B554D" font-size="10" text-anchor="middle"><tspan x="388" dy="0">Accounting_git</tspan></text><rect x="42" y="216" width="100" height="32" rx="8" fill="#FFFFFF" stroke="#D9D3C9"/><text x="92" y="236" fill="#5B554D" font-size="10" text-anchor="middle"><tspan x="92" dy="0">JobSeeking_git</tspan></text><rect x="338" y="216" width="100" height="32" rx="8" fill="#FFFFFF" stroke="#D9D3C9"/><text x="388" y="236" fill="#5B554D" font-size="10" text-anchor="middle"><tspan x="388" dy="0">Solar, Hosting…</tspan></text><rect x="166" y="144" width="148" height="72" rx="12" fill="#E8683F"/><text x="240" y="168" fill="#fff" font-size="13" font-weight="700" text-anchor="middle">00 transverse</text><text x="240" y="186" fill="#fff" font-size="9.5" text-anchor="middle" opacity="0.92">rules · memory</text><text x="240" y="202" fill="#fff" font-size="9.5" text-anchor="middle" opacity="0.92">scripts · skills</text><text x="240" y="276" fill="#8A8378" font-size="10" text-anchor="middle">No dashboard of its own — it exists only for the others</text></svg>
