<svg xmlns="http://www.w3.org/2000/svg" width="960" height="600" viewBox="0 0 480 300" font-family="system-ui,-apple-system,Segoe UI,Roboto,sans-serif"><rect width="480" height="300" rx="18" fill="#F7F5F2"/><rect x="0" y="0" width="480" height="8" fill="#E8683F"/><text x="38" y="40" fill="#8A8378" font-size="12" letter-spacing="2">THREE FREE LAYERS</text><text x="38" y="76" fill="#2A2722" font-size="22" font-weight="700"><tspan x="38" dy="0">Only short phrases ever leave</tspan></text><rect x="30" y="104" width="118" height="128" rx="12" fill="#FFFFFF" stroke="#D9D3C9"/><g transform="translate(75,120) scale(1.0)"><path d="M4 8h7l3 3h10a2 2 0 0 1 2 2v9a2 2 0 0 1-2 2H4a2 2 0 0 1-2-2V10a2 2 0 0 1 2-2z" fill="none" stroke="#E8683F" stroke-width="2"/></g><text x="89" y="176" fill="#2A2722" font-size="12" font-weight="700" text-anchor="middle"><tspan x="89" dy="0">Her sources</tspan></text><text x="89" y="194" fill="#5B554D" font-size="10" text-anchor="middle"><tspan x="89" dy="0">and chapters, all</tspan><tspan x="89" dy="12">on this computer</tspan></text><rect x="181" y="104" width="118" height="128" rx="12" fill="#FFFFFF" stroke="#D9D3C9"/><g transform="translate(226,120) scale(1.0)"><path d="M4 5h9a3 3 0 0 1 3 3v15a3 3 0 0 0-3-3H4z M24 5h-9a3 3 0 0 0-3 3v15a3 3 0 0 1 3-3h9z" fill="none" stroke="#E8683F" stroke-width="2"/></g><text x="240" y="176" fill="#2A2722" font-size="12" font-weight="700" text-anchor="middle"><tspan x="240" dy="0">Open papers</tspan></text><text x="240" y="194" fill="#5B554D" font-size="10" text-anchor="middle"><tspan x="240" dy="0">through CORE,</tspan><tspan x="240" dy="12">short phrases only</tspan></text><rect x="332" y="104" width="118" height="128" rx="12" fill="#FFFFFF" stroke="#D9D3C9"/><g transform="translate(377,120) scale(1.0)"><circle cx="14" cy="14" r="11" fill="none" stroke="#E8683F" stroke-width="2"/><path d="M3 14h22 M14 3c6 6 6 16 0 22-6-6-6-16 0-22" fill="none" stroke="#E8683F" stroke-width="2"/></g><text x="391" y="176" fill="#2A2722" font-size="12" font-weight="700" text-anchor="middle"><tspan x="391" dy="0">Open web</tspan></text><text x="391" y="194" fill="#5B554D" font-size="10" text-anchor="middle"><tspan x="391" dy="0">through SearXNG,</tspan><tspan x="391" dy="12">short phrases only</tspan></text><text x="240" y="264" fill="#5B554D" font-size="12" text-anchor="middle">Nothing is uploaded, ever</text></svg>
