<svg xmlns="http://www.w3.org/2000/svg" width="960" height="600" viewBox="0 0 480 300" font-family="system-ui,-apple-system,Segoe UI,Roboto,sans-serif"><rect width="480" height="300" rx="18" fill="#F7F5F2"/><rect x="0" y="0" width="480" height="8" fill="#E8683F"/><rect x="24" y="26" width="432" height="248" rx="14" fill="#FFFFFF" stroke="#D9D3C9"/><rect x="24" y="26" width="432" height="7" rx="7" fill="#E8683F" opacity="0.85"/><g transform="translate(52,58) scale(1.15)"><path d="M11 5a5 5 0 0 0-5 5 4 4 0 0 0-1 7 4 4 0 0 0 4 5 4 4 0 0 0 7 1V6a4 4 0 0 0-6-1z M17 5a5 5 0 0 1 5 5 4 4 0 0 1 1 7 4 4 0 0 1-4 5 4 4 0 0 1-7 1" fill="none" stroke="#E8683F" stroke-width="2"/></g><text x="56" y="150" fill="#2A2722" font-size="20" font-weight="600"><tspan x="56" dy="0">Claude = l&#x27;IA, le « cerveau »</tspan></text><text x="56" y="192" fill="#8A8378" font-size="12.5"><tspan x="56" dy="0">Créé par Anthropic. Un grand modèle de langage</tspan><tspan x="56" dy="16">(LLM), comme GPT (OpenAI) ou Gemini (Google).</tspan></text><text x="442" y="40" fill="#8A8378" font-size="10" text-anchor="end" letter-spacing="1">SECTION 1</text></svg>
