<svg xmlns="http://www.w3.org/2000/svg" viewBox="0 0 480 300" font-family="system-ui,-apple-system,Segoe UI,Roboto,sans-serif"><rect width="480" height="300" rx="18" fill="#F7F5F2"/><rect x="0" y="0" width="480" height="8" fill="#E8683F"/><text x="38" y="40" fill="#8A8378" font-size="12" letter-spacing="2">SECTION 3</text><text x="38" y="92" fill="#2A2722" font-size="30" font-weight="700"><tspan x="38" dy="0">Les composants</tspan></text><text x="40" y="132" fill="#5B554D" font-size="14"><tspan x="40" dy="0">Quatre portes d&#x27;entrée vers le même Claude — de la plus</tspan><tspan x="40" dy="18">simple à la plus outillée.</tspan></text><rect x="40" y="176" width="91" height="96" rx="12" fill="#FFFFFF" stroke="#D9D3C9"/><g transform="translate(71.5,192) scale(1.0)"><circle cx="14" cy="14" r="11" fill="none" stroke="#E8683F" stroke-width="2"/><path d="M3 14h22 M14 3c6 6 6 16 0 22-6-6-6-16 0-22" fill="none" stroke="#E8683F" stroke-width="2"/></g><text x="85.5" y="252" fill="#2A2722" font-size="10" font-weight="600" text-anchor="middle"><tspan x="85.5" dy="0">Claude web</tspan></text><rect x="143" y="176" width="91" height="96" rx="12" fill="#FFFFFF" stroke="#D9D3C9"/><g transform="translate(174.5,192) scale(1.0)"><rect x="3" y="5" width="15" height="12" rx="2" fill="none" stroke="#E8683F" stroke-width="2"/><rect x="19" y="9" width="7" height="13" rx="2" fill="none" stroke="#E8683F" stroke-width="2"/></g><text x="188.5" y="252" fill="#2A2722" font-size="10" font-weight="600" text-anchor="middle"><tspan x="188.5" dy="0">Desktop</tspan></text><rect x="246" y="176" width="91" height="96" rx="12" fill="#FFFFFF" stroke="#D9D3C9"/><g transform="translate(277.5,192) scale(1.0)"><circle cx="14" cy="14" r="11" fill="none" stroke="#E8683F" stroke-width="2"/><circle cx="14" cy="14" r="3" fill="#E8683F"/><path d="M14 3v8 M4 19l7-4 M24 19l-7-4" stroke="#E8683F" stroke-width="2"/></g><text x="291.5" y="252" fill="#2A2722" font-size="10" font-weight="600" text-anchor="middle"><tspan x="291.5" dy="0">Cowork</tspan></text><rect x="349" y="176" width="91" height="96" rx="12" fill="#FFFFFF" stroke="#D9D3C9"/><g transform="translate(380.5,192) scale(1.0)"><rect x="3" y="5" width="22" height="18" rx="3" fill="none" stroke="#E8683F" stroke-width="2"/><path d="M8 11l4 3-4 3 M14 17h5" stroke="#E8683F" stroke-width="2" stroke-linecap="round" stroke-linejoin="round"/></g><text x="394.5" y="252" fill="#2A2722" font-size="10" font-weight="600" text-anchor="middle"><tspan x="394.5" dy="0">Code</tspan></text></svg>
