<svg xmlns="http://www.w3.org/2000/svg" width="960" height="600" viewBox="0 0 480 300" font-family="system-ui,-apple-system,Segoe UI,Roboto,sans-serif"><rect width="480" height="300" rx="18" fill="#F7F5F2"/><rect x="0" y="0" width="480" height="8" fill="#E8683F"/><text x="38" y="40" fill="#8A8378" font-size="12" letter-spacing="2">SECTION 5</text><text x="38" y="92" fill="#2A2722" font-size="30" font-weight="700"><tspan x="38" dy="0">Comment c&#x27;est organisé</tspan></text><text x="40" y="132" fill="#5B554D" font-size="14"><tspan x="40" dy="0">Conversation, mémoire, Project, Artifacts, connecteurs,</tspan><tspan x="40" dy="18">compte unique.</tspan></text><rect x="40" y="176" width="91" height="96" rx="12" fill="#FFFFFF" stroke="#D9D3C9"/><g transform="translate(71.5,192) scale(1.0)"><path d="M4 6h20a2 2 0 0 1 2 2v10a2 2 0 0 1-2 2H12l-6 5v-5a2 2 0 0 1-2-2V8a2 2 0 0 1 2-2z" fill="none" stroke="#E8683F" stroke-width="2"/></g><text x="85.5" y="252" fill="#2A2722" font-size="10" font-weight="600" text-anchor="middle"><tspan x="85.5" dy="0">conversation</tspan></text><rect x="143" y="176" width="91" height="96" rx="12" fill="#FFFFFF" stroke="#D9D3C9"/><g transform="translate(174.5,192) scale(1.0)"><rect x="5" y="7" width="18" height="14" rx="3" fill="none" stroke="#E8683F" stroke-width="2"/><path d="M9 3v4 M14 3v4 M19 3v4 M9 21v4 M14 21v4 M19 21v4" stroke="#E8683F" stroke-width="2" stroke-linecap="round"/></g><text x="188.5" y="252" fill="#2A2722" font-size="10" font-weight="600" text-anchor="middle"><tspan x="188.5" dy="0">mémoire</tspan></text><rect x="246" y="176" width="91" height="96" rx="12" fill="#FFFFFF" stroke="#D9D3C9"/><g transform="translate(277.5,192) scale(1.0)"><path d="M4 8h7l3 3h10a2 2 0 0 1 2 2v9a2 2 0 0 1-2 2H4a2 2 0 0 1-2-2V10a2 2 0 0 1 2-2z" fill="none" stroke="#E8683F" stroke-width="2"/></g><text x="291.5" y="252" fill="#2A2722" font-size="10" font-weight="600" text-anchor="middle"><tspan x="291.5" dy="0">Project</tspan></text><rect x="349" y="176" width="91" height="96" rx="12" fill="#FFFFFF" stroke="#D9D3C9"/><g transform="translate(380.5,192) scale(1.0)"><rect x="4" y="4" width="9" height="9" rx="2" fill="none" stroke="#E8683F" stroke-width="2"/><rect x="15" y="4" width="9" height="9" rx="2" fill="none" stroke="#E8683F" stroke-width="2"/><rect x="4" y="15" width="9" height="9" rx="2" fill="none" stroke="#E8683F" stroke-width="2"/><rect x="15" y="15" width="9" height="9" rx="2" fill="#E8683F"/></g><text x="394.5" y="252" fill="#2A2722" font-size="10" font-weight="600" text-anchor="middle"><tspan x="394.5" dy="0">Artifacts</tspan></text></svg>
